<?xml version="1.0" standalone="no"?>
<!DOCTYPE svg PUBLIC "-//W3C//DTD SVG 20010904//EN"
 "http://www.w3.org/TR/2001/REC-SVG-20010904/DTD/svg10.dtd">
<svg version="1.0" xmlns="http://www.w3.org/2000/svg"
 width="640.000000pt" height="959.000000pt" viewBox="0 0 640.000000 959.000000"
 preserveAspectRatio="xMidYMid meet">

<g transform="translate(0.000000,959.000000) scale(0.100000,-0.100000)"
fill="#000000" stroke="none">
<path d="M0 8050 c0 -1460 1 -1540 18 -1540 9 0 100 -7 202 -15 152 -11 187
-17 197 -31 17 -23 1 -42 -43 -50 -31 -6 -285 11 -346 22 l-28 6 0 -92 0 -92
32 5 c74 13 287 28 338 25 l55 -3 -50 -17 c-53 -19 -146 -33 -288 -43 l-87 -7
0 -300 c0 -282 1 -300 18 -293 9 4 78 22 152 41 110 28 161 35 275 40 83 3
146 1 154 -4 10 -7 12 -20 7 -47 l-7 -37 -82 6 c-45 4 -100 7 -122 7 -45 1
-301 -59 -358 -84 l-37 -16 0 -2765 0 -2766 825 0 c509 0 825 4 825 9 0 6 -4
13 -10 16 -15 10 -12 35 5 35 8 0 15 -4 15 -10 0 -5 9 -19 20 -30 20 -20 33
-20 2370 -20 l2350 0 0 419 c0 326 -3 420 -12 424 -10 4 -10 6 -1 6 10 1 13
353 13 1691 l0 1691 -40 -32 c-41 -33 -63 -33 -42 1 8 13 12 69 12 167 0 80 3
144 6 140 3 -3 19 19 35 50 l29 55 0 604 0 604 -35 0 c-35 0 -35 0 -35 44 l0
44 35 -8 35 -8 0 1849 0 1849 -2686 0 c-1477 0 -2683 -3 -2681 -7 37 -60 345
-709 340 -714 -5 -5 -51 -11 -103 -13 -61 -3 -90 -2 -80 4 12 8 -16 71 -165
367 l-180 358 -422 3 -423 2 0 -1540z m2267 971 c31 -20 97 -104 87 -113 -3
-3 5 -8 16 -11 17 -4 19 -3 9 9 -13 16 -6 18 19 5 9 -6 28 -12 42 -15 27 -6
100 -105 100 -136 0 -9 11 -22 25 -28 24 -11 25 -16 25 -97 0 -49 -4 -85 -10
-85 -5 0 -8 26 -6 63 4 64 -10 97 -42 97 -9 0 -12 6 -8 18 7 16 6 16 -10 0
-15 -15 -19 -15 -40 -1 -13 8 -24 24 -24 34 0 11 -6 19 -12 19 -9 0 -9 3 1 9
20 13 -56 91 -86 88 -12 0 -21 -6 -20 -12 1 -5 -19 -11 -45 -13 -29 -2 -48 1
-48 7 0 6 -9 11 -21 11 -15 0 -19 5 -15 15 3 9 -3 19 -14 25 -11 6 -20 21 -20
34 0 24 -24 41 -42 30 -20 -12 12 35 34 50 30 21 66 20 105 -3z m-1342 -172
c60 -12 104 -24 97 -27 -11 -3 -233 42 -714 145 -93 20 -168 39 -168 43 0 4
152 -26 338 -66 185 -39 386 -82 447 -95z m956 85 c-19 -8 -42 -13 -50 -11 -9
2 -1 8 19 14 52 16 70 14 31 -3z m-1586 -64 c29 -8 28 -8 -11 -9 -58 -1 -104
9 -104 24 0 13 14 11 115 -15z m2093 -79 c6 -25 8 -49 5 -54 -11 -17 -24 11
-32 67 -6 45 -5 54 4 44 7 -7 17 -33 23 -57z m-1298 49 c-19 -13 -30 -13 -30
0 0 6 10 10 23 10 18 0 19 -2 7 -10z m-562 -18 c17 -2 32 -8 32 -13 0 -5 -11
-7 -25 -4 -14 3 -36 7 -50 10 -14 3 -25 10 -25 16 0 7 7 8 18 4 9 -5 32 -10
50 -13z m169 -36 c8 -8 -16 -8 -56 0 -17 4 -31 10 -31 14 0 8 77 -4 87 -14z
m118 -16 c33 -5 83 -15 110 -21 28 -6 58 -12 69 -13 18 -2 42 -33 33 -43 -3
-2 -14 0 -24 5 -10 5 -72 22 -137 36 -120 27 -173 45 -131 45 11 1 47 -4 80
-9z m385 -90 c0 -5 -15 -9 -32 -9 l-33 1 30 8 c17 4 31 8 33 9 1 0 2 -3 2 -9z
m2425 -46 c19 -8 50 -65 60 -111 3 -18 10 -33 15 -33 5 0 21 -5 37 -12 15 -6
32 -10 36 -9 5 1 7 -9 5 -21 -2 -19 -9 -23 -38 -22 -47 2 -68 12 -75 35 -4 10
-13 19 -21 19 -11 0 -15 9 -14 28 3 47 0 62 -13 62 -18 0 -39 37 -26 46 8 4 7
9 -2 15 -11 7 -10 9 3 9 9 0 24 -3 33 -6z m-1549 -19 c-11 -8 -25 -15 -30 -15
-6 1 0 7 14 15 32 19 40 18 16 0z m1624 0 c7 -8 17 -15 22 -15 12 0 82 -60 71
-60 -4 -1 7 -7 25 -15 20 -9 32 -21 31 -32 0 -11 -3 -13 -6 -5 -2 7 -13 17
-23 22 -16 9 -17 6 -9 -28 5 -20 9 -46 9 -57 0 -17 -2 -18 -15 -4 -8 8 -17 39
-20 69 -5 49 -16 69 -38 70 -4 0 -3 -9 3 -21 18 -33 7 -31 -33 5 -41 38 -65
86 -43 86 7 0 19 -7 26 -15z m-165 -25 c-16 -16 -31 -27 -34 -24 -5 5 48 54
58 54 3 0 -8 -13 -24 -30z m595 -10 c-10 -6 -11 -10 -2 -10 6 0 12 -11 12 -25
0 -14 -4 -25 -10 -25 -5 0 -20 -10 -31 -21 -17 -17 -23 -19 -30 -8 -7 11 -9
10 -9 -5 0 -11 -3 -17 -6 -13 -10 10 6 65 27 92 11 14 30 25 42 25 18 0 19 -2
7 -10z m-1646 -36 c8 -22 7 -61 -2 -49 -4 6 -14 10 -22 10 -19 0 -26 35 -8 46
19 12 25 11 32 -7z m36 -26 c0 -4 -4 -8 -10 -8 -5 0 -10 4 -10 9 0 5 -3 18 -6
28 -5 16 -4 16 10 -1 9 -11 16 -23 16 -28z m-651 28 c-2 -2 -20 -6 -39 -10
-25 -4 -31 -3 -20 4 14 9 69 15 59 6z m81 -20 c0 -11 -19 -15 -25 -6 -3 5 1
10 9 10 9 0 16 -2 16 -4z m87 -9 c40 -5 37 -17 -3 -17 -22 0 -49 7 -60 15 -18
14 -17 14 11 10 17 -3 40 -7 52 -8z m573 -1 c0 -9 -7 -12 -21 -9 -16 4 -17 8
-7 14 19 13 28 11 28 -5z m-80 -30 c0 -8 -4 -18 -10 -21 -5 -3 -10 3 -10 14 0
12 5 21 10 21 6 0 10 -6 10 -14z m-50 -28 c0 -5 -4 -8 -10 -8 -5 0 -10 10 -10
23 0 18 2 19 10 7 5 -8 10 -18 10 -22z m85 -51 l50 -14 -38 -7 c-51 -10 -98 1
-90 20 6 17 14 17 78 1z m886 -38 c-5 -14 -18 -25 -30 -26 -11 -1 -48 -9 -82
-17 -70 -18 -89 -20 -89 -7 0 5 25 13 55 16 30 4 58 11 61 16 3 5 19 9 35 9
23 0 32 6 40 28 6 15 13 22 16 16 2 -6 -1 -22 -6 -35z m-1205 -6 c-11 -11 -17
4 -9 23 7 18 8 18 11 1 2 -10 1 -21 -2 -24z m1444 -42 c5 -11 10 -30 11 -43 1
-22 2 -22 12 5 15 38 24 34 29 -13 2 -22 0 -40 -4 -40 -11 0 -23 -41 -23 -80
0 -30 -3 -34 -25 -35 -15 0 -26 -7 -28 -17 -2 -11 3 -18 12 -18 9 0 15 -3 15
-7 -3 -20 2 -34 11 -28 11 7 13 -18 4 -52 -7 -26 -24 -31 -24 -8 0 8 -7 15
-16 15 -11 0 -15 6 -11 20 3 11 1 20 -4 20 -5 0 -9 -3 -9 -7 0 -5 -11 -13 -25
-20 -23 -10 -25 -9 -25 16 0 19 14 43 46 77 49 51 64 80 64 120 0 23 -1 24
-16 10 -8 -9 -21 -16 -27 -15 -9 0 -8 2 1 6 19 8 14 33 -7 33 -20 0 -31 18
-31 50 0 33 53 41 70 11z m-1437 -97 c-2 -99 -7 -119 -23 -94 -13 21 3 190 18
190 5 0 7 -43 5 -96z m89 -79 c4 -84 3 -116 -2 -82 -13 97 -20 264 -11 242 4
-11 10 -83 13 -160z m39 108 l-8 -28 -8 37 c-4 20 -4 42 1 49 12 20 24 -25 15
-58z m-82 -20 c-2 -54 -2 -55 -8 -18 -6 38 -3 75 5 75 2 0 3 -26 3 -57z m78
-205 c-3 -8 -6 -5 -6 6 -1 11 2 17 5 13 3 -3 4 -12 1 -19z m-36 -52 c12 -13
12 -63 0 -70 -13 -8 -31 75 -23 104 l7 25 3 -25 c2 -14 8 -29 13 -34z m809 34
c0 -5 -4 -10 -10 -10 -5 0 -10 5 -10 10 0 6 5 10 10 10 6 0 10 -4 10 -10z
m2330 -47 c97 -25 156 -48 166 -65 9 -13 -42 -2 -131 28 -38 14 -100 32 -137
40 -37 9 -70 19 -73 24 -8 12 69 1 175 -27z m-1810 17 c0 -5 -4 -10 -10 -10
-5 0 -10 5 -10 10 0 6 5 10 10 10 6 0 10 -4 10 -10z m-73 -83 c-4 -41 -11 -85
-17 -98 -8 -19 -9 -8 -5 46 3 39 5 82 5 98 0 15 5 27 11 27 9 0 10 -21 6 -73z
m38 53 c-6 -19 -3 -21 32 -16 l38 4 -3 -39 c-3 -30 -7 -37 -16 -29 -10 7 -13
-2 -13 -40 -1 -28 3 -47 8 -44 5 3 9 12 9 20 0 22 17 16 24 -8 3 -13 5 -57 5
-98 -1 -53 -3 -65 -8 -40 -13 73 -19 11 -7 -70 10 -63 15 -77 18 -55 3 17 4 3
2 -30 -2 -38 0 -53 6 -40 4 11 5 -26 2 -83 -3 -75 -2 -106 7 -111 9 -6 9 -25
0 -82 -12 -78 -32 -135 -23 -64 5 32 3 37 -6 25 -9 -11 -13 -12 -17 -2 -8 21
-38 14 -40 -10 -7 -84 -25 -107 -53 -68 -8 11 -20 20 -27 20 -16 0 -16 -2 -2
-37 27 -66 33 -74 52 -69 15 4 18 1 13 -17 -3 -12 -6 -35 -6 -50 0 -16 -4 -26
-9 -23 -5 4 -11 1 -13 -6 -3 -8 -23 1 -56 26 -44 32 -52 43 -52 70 0 18 -3 54
-6 79 l-7 47 45 19 c73 31 79 42 73 124 -4 40 -8 92 -11 117 -6 52 -5 112 1
119 3 2 1 9 -4 15 -5 6 -12 52 -16 101 l-6 90 19 -22 c28 -32 32 -16 31 135 0
115 5 162 18 162 2 0 1 -9 -2 -20z m-1276 -97 c-1 -22 -2 -24 -7 -8 l-5 20 -8
-20 c-7 -17 -8 -16 -8 8 -1 18 4 27 14 27 10 0 15 -9 14 -27z m14 -80 c2 -21
1 -45 -4 -53 -9 -16 -9 -15 -14 48 -4 52 11 56 18 5z m1872 17 c3 -5 -3 -6
-13 -3 -21 5 -39 -29 -45 -87 -4 -34 -4 -34 -5 6 -3 61 14 103 39 97 11 -3 21
-9 24 -13z m-820 -69 c-8 -41 -18 -77 -21 -80 -4 -3 -4 5 -1 19 3 14 9 45 12
70 8 52 14 74 20 69 2 -2 -3 -37 -10 -78z m-1353 2 c-4 -28 -7 -32 -14 -20 -5
9 -6 34 -2 54 9 48 22 19 16 -34z m-35 -75 c-3 -8 -6 -5 -6 6 -1 11 2 17 5 13
3 -3 4 -12 1 -19z m20 -45 c-3 -10 -5 -2 -5 17 0 19 2 27 5 18 2 -10 2 -26 0
-35z m1310 -80 c-71 -194 -127 -393 -140 -498 -3 -20 -5 -14 -6 17 -1 60 12
124 56 268 42 137 113 323 120 316 3 -3 -11 -49 -30 -103z m350 75 c-3 -8 -6
-5 -6 6 -1 11 2 17 5 13 3 -3 4 -12 1 -19z m-1390 -29 c2 -26 0 -29 -12 -19
-18 15 -19 37 -2 43 6 3 12 6 12 6 0 1 1 -13 2 -30z m-280 -31 c-3 -7 -5 -2
-5 12 0 14 2 19 5 13 2 -7 2 -19 0 -25z m-10 -50 c-3 -8 -6 -5 -6 6 -1 11 2
17 5 13 3 -3 4 -12 1 -19z m-17 -286 c-11 -16 -11 -16 -6 1 3 10 7 73 8 140
l2 122 3 -123 c2 -78 0 -129 -7 -140z m3800 179 c0 -2 -20 -24 -45 -48 -45
-43 -45 -43 -45 -16 0 30 40 69 71 69 10 0 19 -2 19 -5z m-110 -134 c0 -22 -7
-24 -120 -42 -89 -13 -124 -15 -132 -7 -14 14 -10 16 117 38 55 10 107 21 115
25 21 11 20 12 20 -14z m310 -211 c0 -52 0 -53 -27 -48 -23 4 -24 6 -10 17 12
9 14 14 5 23 -9 9 -7 12 8 13 18 0 18 1 -1 9 -17 7 -17 9 -2 9 9 1 17 8 17 16
0 8 2 15 5 15 3 0 5 -24 5 -54z m-2313 22 c-3 -8 -6 -5 -6 6 -1 11 2 17 5 13
3 -3 4 -12 1 -19z m2218 -5 c11 -29 18 -158 11 -197 -12 -61 -23 -40 -29 57
-4 50 -9 107 -13 125 -5 25 -3 32 9 32 8 0 18 -8 22 -17z m-3481 -188 c2 -38
2 -57 -1 -40 -2 16 -11 34 -19 40 -8 5 -17 28 -20 50 -4 30 -3 36 5 25 8 -11
11 -2 12 40 l2 55 8 -50 c4 -27 10 -81 13 -120z m-417 118 c-8 -16 -22 -52
-32 -81 -9 -29 -18 -52 -20 -50 -7 6 30 125 44 142 20 24 23 20 8 -11z m322
-37 c23 -31 38 -61 35 -69 -3 -8 3 -21 14 -28 10 -8 22 -25 26 -39 7 -24 6
-24 -8 -6 -12 15 -16 16 -17 5 0 -8 -2 -32 -5 -54 -2 -22 -5 -59 -7 -82 -1
-23 -5 -45 -9 -49 -13 -12 -9 -24 7 -24 8 0 15 -6 16 -12 0 -10 2 -10 6 0 4
10 8 10 19 1 11 -9 14 -8 14 5 0 20 13 20 53 1 18 -8 50 -21 72 -30 22 -8 31
-14 20 -12 -28 2 -35 -17 -8 -21 12 -2 35 -18 50 -35 16 -18 41 -38 56 -44 15
-7 27 -19 27 -28 0 -19 -19 -20 -26 -1 -3 8 -22 17 -42 21 -20 4 -70 22 -110
41 -70 33 -75 34 -88 17 -21 -28 -18 -73 5 -73 28 0 52 -11 45 -21 -3 -5 1 -9
8 -9 18 0 48 -36 48 -56 0 -9 9 -18 20 -21 29 -8 25 -20 -12 -43 -40 -24 -76
-26 -85 -3 -4 9 -15 25 -25 35 -21 21 -16 39 -48 -161 l-22 -135 44 -83 c27
-52 74 -120 126 -179 78 -89 85 -94 122 -94 38 0 40 2 41 33 l2 32 10 -37 c11
-38 28 -47 56 -29 10 7 19 4 26 -6 10 -14 13 -12 19 13 13 57 28 84 47 84 10
0 21 5 24 10 9 14 42 12 48 -2 7 -19 37 22 35 47 -1 21 7 48 23 78 8 14 6 24
-5 36 -18 20 -21 35 -6 26 6 -3 10 3 10 13 0 25 29 33 66 17 37 -16 59 -41 72
-85 24 -76 104 -313 109 -319 2 -3 10 4 18 15 8 11 15 14 15 7 0 -7 9 -13 21
-13 12 0 34 -14 49 -30 18 -20 34 -28 44 -24 34 13 54 -30 61 -133 4 -52 4
-98 -1 -102 -14 -10 -16 -34 -3 -25 9 5 10 0 6 -17 -4 -13 -8 -58 -9 -99 -1
-46 -3 -59 -5 -35 -3 22 -10 43 -16 47 -9 6 -8 8 1 8 8 0 12 9 10 23 -2 13 -9
21 -18 20 -19 -3 -90 61 -90 80 0 8 -9 22 -20 32 -11 10 -17 22 -14 26 3 5 -7
8 -21 7 -25 -2 -26 -5 -20 -42 l6 -40 -26 24 c-31 29 -34 11 -6 -43 18 -35 20
-90 5 -137 -4 -12 -6 -12 -14 0 -7 11 -13 12 -35 2 -14 -7 -25 -18 -24 -24 4
-25 -14 -68 -28 -68 -9 0 -13 -6 -10 -14 4 -10 1 -13 -9 -9 -7 3 -14 0 -14 -6
0 -6 5 -11 10 -11 6 0 10 -7 10 -15 0 -9 11 -20 25 -25 14 -5 25 -14 25 -20 0
-5 7 -10 15 -10 8 0 12 -6 9 -14 -8 -21 12 -28 30 -10 15 14 16 10 16 -50 0
-65 10 -86 33 -68 9 8 20 5 37 -8 31 -24 47 -25 53 -2 2 9 3 4 0 -13 -2 -16
-8 -32 -13 -33 -6 -2 -8 -7 -6 -11 3 -4 -1 -8 -9 -8 -8 0 -11 5 -8 10 3 5 0 7
-8 5 -8 -3 -14 -11 -14 -19 -1 -8 -6 -23 -12 -34 -11 -19 -12 -18 -18 8 -11
44 -25 31 -25 -23 0 -36 4 -52 15 -56 8 -4 15 -12 15 -20 0 -8 5 -14 10 -14 6
0 10 5 10 12 0 6 2 9 5 7 9 -10 -16 -79 -27 -73 -6 4 -64 8 -130 9 -107 2
-121 4 -139 24 -23 25 -47 27 -75 6 -11 -8 -41 -14 -73 -15 -37 0 -61 -6 -73
-17 -17 -15 -25 -16 -81 -3 -34 7 -84 16 -112 19 -55 7 -105 35 -105 58 0 12
9 13 53 7 65 -11 167 -8 180 5 9 9 -2 23 -79 91 -37 33 -84 89 -84 101 0 5
-16 9 -36 9 -21 0 -33 -4 -29 -10 4 -6 -5 -10 -19 -10 -14 0 -26 -5 -26 -11 0
-7 -16 -8 -47 -4 -59 8 -74 20 -34 28 17 4 31 11 31 17 0 14 -33 50 -46 50 -6
0 -17 7 -24 15 -7 8 -26 15 -42 15 -44 0 -67 16 -73 53 -3 17 -12 118 -21 222
-12 150 -19 194 -33 210 -25 29 -41 72 -34 92 5 12 2 15 -10 10 -13 -5 -15 2
-12 41 1 26 0 52 -3 57 -16 26 -8 41 31 61 27 14 43 29 45 44 2 14 0 20 -7 16
-15 -10 -14 7 2 23 10 10 5 11 -25 6 -38 -7 -38 -7 -32 22 5 25 2 31 -15 36
-12 3 -21 10 -21 16 0 6 6 8 13 6 8 -4 12 5 12 27 0 29 4 33 38 41 47 11 92
65 85 102 -3 14 -1 28 3 31 5 3 9 2 10 -3 2 -29 9 -68 13 -80 4 -11 9 -10 24
5 15 15 19 35 19 94 1 42 6 86 13 98 6 12 9 24 6 27 -9 9 -36 -18 -37 -36 0
-10 -4 -6 -10 9 -6 14 -8 40 -5 59 4 26 -1 47 -21 82 -14 27 -29 46 -33 44
-14 -9 -33 74 -26 117 4 24 9 58 11 77 2 19 9 37 16 41 15 10 79 7 97 -3 15
-10 14 -10 2 32 -7 24 -6 39 1 48 9 10 8 13 -3 13 -23 0 -52 119 -44 178 3 26
9 74 12 107 10 105 15 107 73 31z m888 -18 c-2 -13 -4 -3 -4 22 0 25 2 35 4
23 2 -13 2 -33 0 -45z m2362 21 l53 -12 -6 -36 c-3 -20 -6 -54 -6 -76 0 -39
-1 -40 -38 -42 -114 -7 -713 -63 -917 -87 -139 -16 -374 -32 -570 -40 l-120
-5 115 17 115 17 3 35 c1 19 5 45 7 56 l5 22 62 -24 c35 -14 75 -31 89 -38 23
-12 43 -12 135 0 60 8 132 17 159 20 28 3 59 10 70 15 11 5 117 34 235 64 118
30 284 72 369 93 84 22 161 38 170 36 9 -1 40 -8 70 -15z m421 -9 l0 -30 -25
22 c-14 12 -25 25 -25 30 0 4 11 8 25 8 21 0 25 -5 25 -30z m-2680 -45 c0 -3
-18 -24 -40 -47 -23 -22 -38 -43 -36 -46 3 -3 0 -10 -8 -16 -7 -6 -22 -35 -34
-64 -20 -49 -30 -98 -79 -389 -8 -51 -19 -93 -23 -93 -4 0 -3 24 2 53 5 28 17
115 28 192 25 173 36 224 66 297 13 32 25 70 25 85 1 17 3 21 6 11 6 -23 12
-22 43 2 24 19 50 26 50 15z m90 -96 c31 -35 39 -39 47 -26 7 15 13 15 51 1
39 -13 45 -13 60 3 16 16 17 15 20 -12 3 -19 6 -24 11 -16 11 18 24 -138 15
-186 -3 -21 -12 -48 -20 -60 -8 -12 -14 -29 -14 -38 0 -8 -9 -15 -19 -15 -11
0 -23 -9 -26 -21 -12 -38 -30 -13 -40 58 -10 66 -26 103 -46 103 -4 0 -5 -16
-2 -35 3 -19 1 -40 -5 -47 -5 -7 -13 -27 -16 -44 -8 -35 -11 -171 -5 -194 7
-25 23 -39 35 -29 13 10 44 2 44 -12 0 -5 7 -9 15 -9 13 0 14 4 2 33 -15 36
-12 57 9 57 8 0 14 7 14 15 0 9 7 18 15 21 8 4 15 15 15 25 0 12 5 16 15 12
10 -3 15 -1 13 7 -2 7 3 15 10 17 9 3 12 -5 10 -29 -2 -18 -6 -35 -10 -38 -3
-3 -8 -40 -11 -82 -4 -73 -6 -78 -46 -118 -52 -52 -90 -53 -107 -2 -12 40 -40
70 -31 35 3 -13 1 -23 -3 -23 -5 0 -16 -20 -26 -45 -18 -48 -24 -51 -55 -34
-14 7 -20 19 -18 37 2 15 -5 43 -14 62 -16 30 -16 41 -5 85 7 27 16 52 20 55
4 3 9 22 11 43 2 20 11 45 20 55 21 23 21 32 2 32 -13 0 -14 4 -5 21 6 11 12
63 12 115 1 52 5 97 10 100 4 3 1 15 -7 27 -22 34 -36 109 -23 124 18 22 39
15 78 -28z m-1473 -51 c-3 -7 -5 -2 -5 12 0 14 2 19 5 13 2 -7 2 -19 0 -25z
m3687 -45 c6 -51 4 -62 -7 -57 -20 7 -423 -24 -542 -42 -174 -26 -314 -43
-530 -63 -256 -24 -617 -37 -595 -22 8 6 28 11 43 11 16 0 26 4 22 10 -3 6 1
10 10 10 8 0 19 10 24 23 11 29 99 50 311 73 306 34 436 38 464 15 12 -10 65
-11 228 -7 213 6 340 12 368 19 54 14 76 21 86 28 6 5 27 10 47 11 19 2 35 8
34 13 -1 6 4 9 12 7 8 -2 11 3 8 12 -5 12 2 31 8 24 1 -2 5 -31 9 -65z m583
20 c-3 -10 -5 -4 -5 12 0 17 2 24 5 18 2 -7 2 -21 0 -30z m-4288 -72 c-6 -34
-14 -60 -16 -57 -2 2 1 32 8 65 6 34 14 60 16 57 2 -2 -1 -32 -8 -65z m508 12
c-3 -10 -5 -2 -5 17 0 19 2 27 5 18 2 -10 2 -26 0 -35z m3783 21 c0 -8 -4 -12
-10 -9 -5 3 -10 10 -10 16 0 5 5 9 10 9 6 0 10 -7 10 -16z m-3810 -44 c0 -5
-4 -10 -10 -10 -5 0 -10 5 -10 10 0 6 5 10 10 10 6 0 10 -4 10 -10z m3810 -35
c0 -28 -4 -35 -20 -35 -25 0 -26 24 -2 49 23 26 22 26 22 -14z m-4320 -67 c-7
-18 -26 -63 -41 -99 -34 -80 -46 -132 -59 -255 -6 -60 -16 -101 -25 -110 -8
-9 -15 -21 -15 -28 0 -7 -15 -60 -34 -117 -19 -57 -36 -113 -39 -124 -5 -20
-5 -20 -6 0 -1 27 61 246 88 308 12 28 21 70 21 100 0 64 32 180 76 275 19 41
34 78 34 84 0 6 3 8 6 5 4 -4 1 -21 -6 -39z m3570 27 c10 -13 9 -15 -11 -14
-13 0 -18 3 -11 6 6 2 10 9 6 14 -9 15 2 10 16 -6z m220 -9 c0 -13 -7 -27 -16
-30 -8 -3 -86 -8 -172 -11 -149 -4 -160 1 -39 20 21 3 35 10 32 16 -14 21 11
28 100 28 93 0 95 0 95 -23z m547 -63 c-2 -16 -4 -5 -4 22 0 28 2 40 4 28 2
-13 2 -35 0 -50z m-1429 30 c-70 -8 -39 -23 50 -25 155 -2 295 0 367 6 45 4
65 3 56 -3 -8 -5 -51 -12 -95 -16 -45 -3 -130 -13 -191 -21 -197 -25 -387 -43
-567 -54 -273 -15 -356 -19 -323 -14 17 2 46 9 67 15 20 7 46 12 57 13 12 0
21 4 21 9 0 4 0 11 0 16 0 5 -21 7 -46 5 -25 -3 -53 -2 -62 2 -22 10 32 18
248 39 91 9 197 20 235 24 39 5 104 8 145 8 41 0 58 -2 38 -4z m-4321 -40 c-3
-10 -5 -4 -5 12 0 17 2 24 5 18 2 -7 2 -21 0 -30z m5193 -60 c0 -36 -2 -64 -4
-62 -8 10 -13 129 -5 129 5 0 9 -30 9 -67z m-4853 25 c-3 -7 -5 -2 -5 12 0 14
2 19 5 13 2 -7 2 -19 0 -25z m5310 10 c-3 -8 -6 -5 -6 6 -1 11 2 17 5 13 3 -3
4 -12 1 -19z m33 18 c0 -3 -4 -8 -10 -11 -5 -3 -10 -1 -10 4 0 6 5 11 10 11 6
0 10 -2 10 -4z m-320 -89 c17 5 20 0 20 -28 -1 -28 -2 -31 -11 -16 -5 9 -15
17 -20 17 -6 0 -7 -5 -3 -12 4 -7 3 -8 -4 -4 -7 4 -12 19 -11 34 0 15 3 22 5
16 3 -7 14 -10 24 -7z m-3113 -65 c28 -30 39 -53 58 -124 8 -27 9 -48 4 -48
-5 0 -2 -11 7 -25 9 -14 14 -28 10 -32 -3 -3 -6 -1 -6 5 0 7 -13 9 -34 5 -26
-4 -39 0 -55 16 -16 16 -30 20 -56 17 -19 -3 -35 0 -35 5 0 6 -4 8 -9 5 -5 -3
-8 2 -7 11 0 10 -11 23 -27 31 -20 10 -27 20 -25 35 4 28 28 34 35 8 6 -22 20
-26 131 -35 59 -5 62 -5 53 13 -6 11 -26 21 -50 25 -55 8 -63 26 -12 26 32 0
39 3 34 15 -3 9 -17 22 -32 29 -22 12 -31 12 -58 1 -31 -13 -32 -13 -21 5 7
10 17 16 23 12 5 -3 4 2 -4 11 -18 23 -6 35 19 19 18 -11 20 -9 21 15 2 24 2
25 6 5 2 -12 16 -35 30 -50z m3003 52 c0 -14 -43 -11 -47 3 -2 6 7 10 22 9 14
0 25 -6 25 -12z m-1338 -221 c2 -120 3 -492 3 -828 0 -561 -1 -610 -17 -613
-9 -2 -19 5 -23 17 -3 12 -12 21 -20 21 -7 0 -15 9 -18 20 -3 13 0 20 10 20
10 0 13 9 11 33 -2 23 -8 32 -20 31 -10 -1 -18 2 -18 7 0 5 5 9 11 9 6 0 9 12
7 28 -3 23 -7 27 -31 25 -21 -2 -28 2 -26 15 1 9 0 19 -1 22 -7 17 -20 509
-25 982 l-5 407 38 6 c20 4 42 8 47 10 6 2 24 4 42 4 l32 1 3 -217z m1228 170
c0 -14 -9 -18 -36 -20 -19 -1 -52 -8 -72 -15 -20 -6 -41 -11 -46 -10 -5 2 -13
-3 -17 -10 -7 -10 -9 -8 -9 5 0 20 39 38 91 42 19 1 44 7 55 13 27 16 34 15
34 -5z m50 13 c0 -3 -4 -8 -10 -11 -5 -3 -10 -1 -10 4 0 6 5 11 10 11 6 0 10
-2 10 -4z m50 -25 c0 -5 -7 -14 -15 -21 -12 -10 -15 -10 -15 2 0 8 3 18 7 21
9 10 23 9 23 -2z m-2103 -53 c-3 -7 -5 -2 -5 12 0 14 2 19 5 13 2 -7 2 -19 0
-25z m2110 -40 c-3 -8 -6 -5 -6 6 -1 11 2 17 5 13 3 -3 4 -12 1 -19z m-2622
-20 c-4 -13 -17 -30 -28 -38 -12 -8 -44 -38 -72 -65 -27 -28 -65 -62 -82 -75
-18 -14 -33 -30 -33 -36 0 -6 -7 -18 -16 -25 -19 -16 -46 -75 -77 -168 -28
-87 -34 -59 -7 32 38 125 74 179 194 293 60 57 114 104 119 104 4 0 5 -10 2
-22z m2705 -75 c0 -10 -4 -14 -8 -8 -4 6 -11 13 -16 18 -5 4 -2 7 7 7 10 0 17
-8 17 -17z m483 -365 c-3 -200 -9 -365 -14 -368 -4 -3 -10 -23 -12 -45 -2 -22
-3 14 -1 80 2 66 6 233 9 370 5 229 11 325 20 325 2 0 1 -163 -2 -362z m-2686
305 c-3 -10 -5 -2 -5 17 0 19 2 27 5 18 2 -10 2 -26 0 -35z m2644 -473 l-8
-195 -1 230 c-1 136 -6 225 -11 220 -5 -6 -11 -19 -13 -29 -2 -12 -18 -23 -45
-31 l-43 -13 0 42 0 41 45 -3 c40 -4 45 -2 45 17 0 12 5 21 10 21 6 0 11 45
11 113 2 109 2 108 10 -53 5 -91 5 -253 0 -360z m-501 486 c0 -3 -4 -8 -10
-11 -5 -3 -10 -1 -10 4 0 6 5 11 10 11 6 0 10 -2 10 -4z m64 -12 c23 -61 15
-164 -14 -164 -10 0 -6 19 11 55 6 13 5 38 -4 73 -8 28 -11 52 -7 52 5 0 11
-7 14 -16z m-3574 -28 c0 -3 -4 -8 -10 -11 -5 -3 -10 -1 -10 4 0 6 5 11 10 11
6 0 10 -2 10 -4z m3496 -18 c-3 -13 -6 -33 -6 -45 0 -13 -3 -23 -8 -23 -4 0
-6 20 -4 45 2 25 9 45 14 45 6 0 8 -10 4 -22z m-2376 -97 c0 -22 -4 -43 -10
-46 -5 -3 -10 -17 -10 -30 0 -13 -6 -26 -12 -28 -7 -3 -3 -6 8 -6 12 -1 24 -8
28 -16 3 -8 12 -15 19 -15 8 0 20 -7 27 -15 19 -23 40 -158 30 -192 l-8 -28
-1 33 c-1 30 -4 33 -23 27 -18 -5 -19 -4 -8 4 8 5 12 12 10 14 -32 25 -69 45
-74 40 -4 -4 -5 14 -3 41 3 42 0 50 -25 71 -15 13 -28 30 -28 39 0 8 -5 18
-10 21 -6 3 -8 16 -4 29 3 12 6 31 8 41 2 10 8 21 14 23 7 2 12 10 12 18 0 9
11 14 30 14 28 0 30 -2 30 -39z m2720 23 c0 -8 -4 -12 -10 -9 -5 3 -10 10 -10
16 0 5 5 9 10 9 6 0 10 -7 10 -16z m-330 -36 c0 -14 -16 -9 -36 13 -19 21 -19
21 9 8 15 -7 27 -16 27 -21z m250 -608 c0 -499 -2 -589 -14 -584 -8 3 -12 13
-9 23 3 11 -1 18 -11 18 -9 0 -16 -4 -16 -9 0 -4 -7 -8 -15 -8 -9 0 -18 -8
-22 -17 -3 -10 -11 -24 -17 -32 -9 -11 -12 -9 -16 9 -3 13 -15 27 -28 31 -19
7 -26 2 -52 -39 -26 -41 -37 -79 -66 -222 -4 -19 -9 -30 -11 -23 -3 7 10 73
27 148 94 411 98 446 102 745 3 283 -9 429 -38 477 -8 12 -14 32 -14 44 0 16
4 19 18 14 17 -7 22 -8 75 -20 18 -3 27 -12 27 -25 0 -24 9 -28 40 -20 24 6
24 6 3 12 -16 4 -20 11 -16 27 3 12 12 21 19 21 8 0 14 5 14 10 0 6 5 10 10
10 7 0 10 -203 10 -590z m-253 548 c-3 -8 -6 -5 -6 6 -1 11 2 17 5 13 3 -3 4
-12 1 -19z m354 -76 c-8 -3 -11 -87 -11 -256 0 -139 -3 -409 -7 -600 -6 -329
-7 -345 -22 -309 -14 33 -16 104 -16 538 0 275 1 537 3 582 3 74 5 81 23 78
15 -3 19 2 19 24 0 49 15 45 18 -5 2 -28 -1 -50 -7 -52z m-5492 27 c-15 -9
-32 -2 -24 11 3 5 13 6 21 3 12 -4 13 -8 3 -14z m2064 12 c8 -1 9 -57 1 -88
-8 -31 -24 -29 -56 7 -14 17 -23 30 -19 30 4 0 7 10 6 23 -3 32 3 38 33 33 15
-2 30 -5 35 -5z m3017 -64 l-12 -44 -71 -5 c-40 -3 -124 -17 -187 -31 -63 -14
-149 -33 -190 -42 -41 -9 -130 -28 -197 -42 -107 -23 -126 -25 -148 -13 -26
14 -34 53 -13 66 6 4 48 15 92 25 45 9 115 24 156 34 41 9 117 23 168 31 52 7
117 21 145 29 28 8 95 18 149 22 54 3 101 10 104 15 14 21 16 -5 4 -45z
m-4023 -19 c-2 -13 -4 -5 -4 17 -1 22 1 32 4 23 2 -10 2 -28 0 -40z m1650 -40
c-3 -8 -6 -5 -6 6 -1 11 2 17 5 13 3 -3 4 -12 1 -19z m-2611 -71 c3 -41 1 -67
-5 -72 -7 -4 -11 4 -11 19 0 14 -4 26 -10 26 -14 0 -13 73 2 88 16 16 18 13
24 -61z m279 48 c77 -8 208 -23 290 -35 162 -22 323 -39 368 -40 28 0 38 -14
54 -78 6 -24 5 -26 -10 -13 -10 7 -17 11 -17 9 0 -3 -26 -1 -57 4 -32 4 -112
15 -178 23 -404 50 -536 65 -581 65 -53 0 -64 8 -64 50 0 33 10 34 195 15z
m2329 -10 c3 -8 1 -15 -4 -15 -6 0 -10 7 -10 15 0 8 2 15 4 15 2 0 6 -7 10
-15z m47 -42 l24 -27 -24 15 c-14 9 -27 21 -29 27 -6 19 3 14 29 -15z m2408
-170 c1 -90 -3 -143 -9 -143 -6 0 -10 63 -9 173 1 101 5 160 9 142 4 -16 8
-94 9 -172z m-5171 110 c-1 -94 2 -124 10 -119 4 2 6 -14 5 -37 -2 -41 -2 -41
5 -7 l7 35 13 -55 c8 -30 12 -73 10 -95 -3 -38 -2 -40 25 -37 23 2 27 -1 27
-22 0 -13 -6 -27 -12 -29 -8 -3 -5 -6 6 -6 16 -1 18 -7 14 -56 -4 -42 -10 -59
-29 -74 l-24 -20 28 -1 c24 0 27 -3 22 -20 -7 -24 3 -63 15 -55 12 8 17 -16 9
-55 l-6 -35 -2 33 c0 17 -5 32 -10 32 -12 0 -22 -83 -10 -94 5 -6 9 -18 9 -28
0 -10 7 -18 15 -18 21 0 19 -17 -5 -30 -22 -12 -28 -72 -10 -100 7 -11 10 -7
10 18 0 17 5 32 11 32 6 0 10 -18 8 -42 -1 -24 2 -51 6 -61 5 -11 1 -24 -9
-36 -18 -19 -22 -46 -6 -36 7 4 8 -3 4 -22 -15 -65 -16 -115 -3 -124 12 -7 14
-176 13 -1011 0 -552 -3 -1036 -6 -1077 -7 -85 -19 -101 -80 -101 -21 0 -38
-5 -38 -11 0 -5 -4 -8 -9 -4 -6 3 -14 -3 -20 -12 -5 -10 -13 -14 -18 -10 -9 9
-11 1869 -3 2099 4 120 7 139 24 151 20 14 32 67 15 67 -5 0 -9 5 -9 11 0 5 5
7 10 4 6 -3 10 1 10 9 0 9 -4 16 -10 16 -5 0 -10 7 -10 15 0 9 -6 12 -16 8
-15 -5 -15 40 -9 523 4 291 9 532 12 537 9 15 11 5 11 -50z m129 -35 c-3 -8
-6 -5 -6 6 -1 11 2 17 5 13 3 -3 4 -12 1 -19z m-87 -4 c0 -2 -7 -4 -15 -4 -8
0 -15 4 -15 10 0 5 7 7 15 4 8 -4 15 -8 15 -10z m5619 -948 c0 -231 -1 -417
-3 -415 -2 2 -5 281 -8 619 -3 338 -2 525 2 415 4 -110 8 -389 9 -619z m-5559
744 c0 -22 -4 -40 -10 -40 -5 0 -10 18 -10 40 0 22 5 40 10 40 6 0 10 -18 10
-40z m5587 -2 c-3 -7 -5 -2 -5 12 0 14 2 19 5 13 2 -7 2 -19 0 -25z m0 -391
c-1 -67 -3 -9 -3 128 0 138 2 192 3 122 2 -71 2 -183 0 -250z m-4502 176 c20
-81 19 -90 -7 -91 -32 0 -134 -18 -271 -48 -132 -29 -164 -25 -164 22 0 33 11
39 97 53 41 7 127 25 190 41 102 25 110 28 70 30 -25 1 -52 2 -62 1 -9 -1 -19
2 -22 8 -4 5 19 15 51 21 32 7 67 15 78 20 11 4 21 6 23 5 2 -2 10 -29 17 -62z
m-1044 -8 c-6 -34 -8 -37 -14 -18 -9 25 2 78 13 66 5 -4 5 -26 1 -48z m4989
-46 c-22 -100 -34 -137 -25 -79 9 62 37 181 41 177 3 -2 -5 -47 -16 -98z
m-2412 -23 c6 -3 12 1 15 8 3 8 1 17 -6 19 -7 2 -9 8 -4 12 8 9 36 -23 37 -42
0 -7 -7 -13 -16 -13 -11 0 -14 -5 -10 -16 3 -9 6 -22 6 -30 0 -9 4 -13 8 -10
4 3 7 -14 6 -37 -2 -33 -9 -48 -38 -74 -59 -54 -61 -51 -63 117 l-1 151 28
-40 c16 -21 33 -42 38 -45z m2074 49 c9 -21 8 -28 -7 -45 -30 -33 -95 -19 -95
20 0 50 81 70 102 25z m-4012 1 c0 -3 -4 -8 -10 -11 -5 -3 -10 -1 -10 4 0 6 5
11 10 11 6 0 10 -2 10 -4z m1810 -43 c0 -20 -3 -24 -11 -16 -7 7 -9 19 -6 27
10 24 17 19 17 -11z m227 -15 c-3 -8 -6 -5 -6 6 -1 11 2 17 5 13 3 -3 4 -12 1
-19z m-247 -48 c0 -5 -5 -10 -11 -10 -5 0 -7 5 -4 10 3 6 8 10 11 10 2 0 4 -4
4 -10z m-2433 -152 c-3 -8 -6 -5 -6 6 -1 11 2 17 5 13 3 -3 4 -12 1 -19z
m3560 0 c-3 -8 -6 -5 -6 6 -1 11 2 17 5 13 3 -3 4 -12 1 -19z m-2400 -65 c-3
-10 -5 -2 -5 17 0 19 2 27 5 18 2 -10 2 -26 0 -35z m3514 15 c16 -12 41 -41
54 -64 36 -61 70 -85 102 -73 13 5 29 7 34 3 5 -3 9 4 9 16 0 12 4 19 9 16 11
-7 5 -65 -14 -151 -8 -33 -24 -107 -36 -165 -27 -132 -52 -200 -84 -230 -14
-13 -25 -31 -25 -41 0 -9 -20 -36 -45 -60 -25 -24 -52 -62 -61 -86 -9 -24 -21
-43 -25 -44 -39 -4 -72 -1 -77 7 -4 6 -73 10 -162 9 -178 0 -321 21 -401 60
-29 13 -55 22 -60 19 -5 -2 -26 4 -48 15 -22 10 -64 24 -93 31 -46 10 -118 31
-168 48 -8 3 -18 5 -21 4 -4 -1 -58 13 -120 29 -63 17 -150 37 -194 44 -45 7
-94 19 -110 28 l-30 15 38 18 c20 10 37 21 37 25 0 3 -21 12 -47 19 -103 26
-167 51 -200 76 -19 15 -45 26 -56 25 -33 -3 -89 -3 -117 -2 l-25 2 23 19 c32
26 98 43 145 37 21 -3 100 -35 176 -71 76 -36 149 -66 162 -66 13 0 48 -11 77
-25 30 -14 60 -25 67 -25 7 0 42 13 78 30 37 16 106 42 154 56 48 14 101 30
116 34 48 15 136 -7 242 -60 100 -50 228 -91 241 -77 4 4 2 18 -4 31 -16 35
-10 185 9 221 70 136 126 235 146 261 36 48 77 61 196 63 66 1 82 -2 108 -21z
m-5295 -109 c33 -37 -10 -70 -72 -55 -21 6 -23 11 -18 34 4 15 9 30 11 35 9
15 61 6 79 -14z m1803 -86 c-1 -51 -2 -54 -10 -28 -8 27 -4 85 7 85 2 0 4 -26
3 -57z m433 18 c26 -24 30 -32 21 -42 -10 -10 -19 -6 -43 21 -50 56 -33 71 22
21z m3678 10 c13 -26 13 -64 -1 -78 -13 -13 -5 -43 11 -43 6 0 15 11 20 25 11
29 25 32 34 9 11 -28 7 -46 -9 -40 -11 4 -16 -7 -21 -46 -6 -44 -9 -49 -19
-34 -12 15 -15 15 -48 -6 -19 -13 -38 -32 -41 -43 -3 -10 -8 -16 -12 -12 -4 4
-13 2 -21 -4 -10 -9 -13 -6 -12 12 0 13 -3 36 -6 50 -6 23 -2 29 26 43 17 9
40 16 50 16 24 0 32 32 16 63 -13 26 -15 26 -31 9 -9 -10 -16 -24 -16 -30 0
-18 -17 -14 -24 4 -4 9 -1 23 5 30 8 10 8 14 0 14 -6 0 -16 -9 -23 -20 -11
-18 -14 -18 -30 -3 -23 21 -33 11 -16 -16 19 -31 -2 -49 -36 -31 -21 10 -24
18 -20 44 13 77 10 74 56 69 30 -3 55 2 83 16 51 26 72 26 85 2z m-1272 -72
c16 -6 22 -17 22 -38 0 -16 -6 -31 -12 -33 -7 -3 -91 -2 -186 0 -168 4 -174 5
-184 27 -7 16 -7 29 1 43 11 20 17 20 173 15 90 -3 173 -10 186 -14z m-4192
-54 c10 -54 1 -65 -51 -65 l-45 0 0 44 c0 44 0 45 38 49 20 2 40 4 44 5 4 1
10 -14 14 -33z m284 15 c34 -34 17 -80 -30 -80 -24 0 -29 5 -32 28 -4 34 11
72 29 72 7 0 22 -9 33 -20z m2168 10 c9 -5 34 -16 54 -26 21 -9 50 -29 65 -44
16 -15 37 -30 49 -34 26 -8 71 25 77 57 2 12 5 4 5 -18 1 -26 -5 -49 -18 -65
-11 -14 -20 -36 -20 -50 -1 -14 -5 -34 -9 -45 -8 -19 -8 -19 -20 3 -7 12 -16
20 -21 17 -5 -3 -11 -1 -15 5 -4 7 -17 3 -36 -10 -16 -12 -29 -17 -29 -11 0 6
5 11 10 11 14 0 13 77 -1 86 -18 11 -27 -8 -33 -65 -9 -84 -35 -101 -84 -56
-15 14 -32 25 -38 25 -7 0 -14 9 -17 20 -6 23 -18 22 -110 -6 -35 -11 -57 -12
-83 -5 -20 5 -42 7 -49 4 -8 -2 -28 2 -45 10 -20 10 -30 12 -30 4 0 -8 -3 -8
-11 0 -14 14 -3 33 20 33 10 0 37 14 61 31 60 44 107 48 147 15 41 -34 47 -33
38 10 -6 37 9 92 29 106 16 11 93 10 114 -2z m-2742 -15 c12 -8 25 -11 29 -7
4 4 23 7 43 7 42 0 64 -21 55 -53 -4 -18 -13 -22 -49 -22 -23 0 -46 5 -49 10
-4 7 -12 7 -25 0 -39 -21 -170 -7 -147 16 4 4 2 13 -5 21 -17 21 1 31 62 36
30 2 57 4 60 5 3 1 15 -5 26 -13z m169 -25 c7 -41 0 -64 -16 -55 -12 8 -12 95
0 95 5 0 12 -18 16 -40z m553 24 c40 -28 18 -84 -34 -84 -27 0 -40 33 -30 75
7 29 31 32 64 9z m921 -61 c0 -16 -4 -46 -8 -68 -8 -37 -9 -35 -10 28 -1 39 3
67 9 67 6 0 10 -12 9 -27z m4291 -235 c-12 -13 -27 -30 -35 -38 -8 -9 -17 -35
-21 -59 -6 -37 -9 -41 -21 -28 -21 20 -8 137 14 137 10 0 12 6 8 20 -5 15 -3
18 8 14 13 -5 14 1 6 37 -5 23 -8 44 -5 46 4 4 28 10 49 12 4 1 8 9 9 19 1 9
4 -18 5 -60 3 -67 1 -80 -17 -100z m-2944 55 c-3 -23 -16 -47 -34 -66 -31 -31
-129 -72 -134 -56 -2 4 -37 -1 -78 -12 -41 -12 -87 -23 -103 -26 -15 -3 -30
-9 -33 -14 -6 -11 -64 -12 -64 -1 0 4 -16 8 -36 10 -19 1 -42 8 -50 16 -12 12
-7 17 39 32 28 9 65 26 82 38 20 14 43 20 70 19 100 -4 125 -7 125 -17 0 -6 4
-6 11 1 6 6 28 9 48 6 41 -6 121 27 121 50 0 13 28 57 36 57 2 0 2 -17 0 -37z
m2501 -70 c-3 -10 -5 -2 -5 17 0 19 2 27 5 18 2 -10 2 -26 0 -35z m-177 -18
c0 -8 -7 -15 -15 -15 -16 0 -20 12 -8 23 11 12 23 8 23 -8z m623 -56 c-4 -4
-14 -4 -22 1 -13 7 -13 11 -1 25 12 15 14 15 23 0 5 -10 5 -21 0 -26z m-4286
-21 c-2 -13 -4 -5 -4 17 -1 22 1 32 4 23 2 -10 2 -28 0 -40z m3829 -96 c-11
-10 -15 4 -8 28 l7 25 3 -23 c2 -13 1 -26 -2 -30z m-5206 -26 c0 -28 -15 -50
-28 -42 -8 5 -10 73 -3 96 4 12 31 -36 31 -54z m545 29 c28 -27 31 -54 11 -94
-14 -27 -53 -51 -82 -51 -19 0 -77 29 -86 44 -15 22 -7 52 23 89 26 31 36 37
70 37 29 0 47 -7 64 -25z m-1025 -77 c0 -39 -13 -51 -24 -22 -8 21 -8 69 1 77
11 12 23 -16 23 -55z m5920 22 c0 -5 -5 -10 -11 -10 -5 0 -7 5 -4 10 3 6 8 10
11 10 2 0 4 -4 4 -10z m370 -22 c-1 -27 -18 -52 -42 -61 -17 -6 -24 -39 -19
-89 2 -12 -5 -18 -17 -18 -25 0 -38 45 -19 64 7 8 24 39 37 70 17 38 30 56 42
56 12 0 18 -8 18 -22z m-4386 -295 c1 -108 5 -138 25 -190 21 -55 22 -69 13
-120 l-10 -58 1 70 c1 54 -4 80 -21 115 -12 25 -20 37 -18 28 3 -9 0 -45 -6
-81 -7 -44 -7 -87 0 -142 11 -78 10 -79 -18 -122 -23 -33 -28 -50 -23 -73 8
-43 -11 -61 -56 -55 -37 6 -79 -11 -53 -22 6 -2 12 -16 12 -29 0 -19 -5 -24
-25 -24 -14 0 -28 7 -32 15 -3 9 -21 22 -40 30 -37 16 -36 35 2 35 15 0 31 10
40 24 9 14 30 29 47 35 25 9 28 13 19 25 -7 8 -30 17 -51 21 -44 8 -53 16 -69
68 -7 20 -16 37 -21 37 -21 0 -18 41 7 96 14 32 26 63 24 68 -1 5 5 6 14 3 8
-4 15 -2 15 3 0 5 20 51 45 103 25 52 45 99 45 105 0 22 42 60 74 66 36 7 46
24 46 80 0 16 3 27 6 23 3 -3 7 -63 8 -134z m3816 50 c14 -17 13 -40 -2 -45
-8 -3 -12 -18 -10 -41 2 -20 -4 -71 -13 -112 -10 -45 -15 -92 -11 -115 8 -49
-11 -63 -20 -16 -9 49 -1 348 10 365 7 12 11 11 22 -5 7 -10 18 -24 24 -31z
m-410 -175 c0 -19 -2 -20 -10 -8 -9 13 -12 13 -24 -2 -11 -15 -56 -26 -56 -14
0 2 -3 11 -6 20 -4 12 4 16 43 19 26 2 49 4 51 5 1 1 2 -8 2 -20z m597 -279
c10 -18 12 -92 8 -300 -3 -151 -5 -355 -5 -452 l0 -177 -37 -2 -38 -1 38 -4
37 -4 0 -95 c0 -93 0 -94 -24 -94 -21 0 -26 7 -34 43 l-10 42 -2 -40 c-2 -22
-4 -58 -6 -80 -1 -22 -6 -85 -10 -140 -7 -105 -22 -171 -23 -105 -1 20 -5 40
-11 46 -8 8 -26 191 -33 344 -2 36 -5 -5 -7 -90 l-3 -155 -7 120 c-4 66 -11
284 -14 485 -3 201 -9 427 -12 503 -3 75 -2 137 3 137 4 0 14 -4 22 -9 14 -9
101 25 124 48 15 15 30 9 44 -20z m-3942 -128 c-2 -2 -7 9 -11 23 -3 15 -16
34 -28 42 -14 11 -17 18 -8 21 6 3 12 19 13 36 0 22 6 8 19 -43 10 -41 17 -77
15 -79z m4035 -256 c0 -382 -10 -651 -21 -580 -5 31 -7 19 -10 -50 l-3 -90 -5
105 c-4 58 -5 301 -3 540 2 427 3 436 22 436 20 0 20 -8 20 -361z m-4426 279
c25 -9 19 -24 -9 -24 -16 0 -25 6 -25 15 0 16 9 19 34 9z m520 -229 c33 -44
49 -71 36 -60 l-23 20 7 -20 c26 -69 46 -180 40 -223 -4 -30 0 -69 10 -108 23
-89 21 -112 -9 -120 -37 -9 -53 1 -63 38 -6 23 -4 41 5 58 18 36 16 68 -8 101
-12 17 -17 34 -12 41 4 7 9 51 10 98 3 111 6 130 16 130 16 0 -35 61 -58 70
-15 6 -22 17 -22 34 0 13 -12 46 -27 72 -14 25 -26 52 -26 58 0 6 15 -16 33
-49 18 -33 59 -96 91 -140z m-406 -57 c3 -13 -3 -18 -22 -18 -20 0 -26 5 -26
21 0 15 5 20 22 17 13 -2 24 -11 26 -20z m3 -198 c10 -6 19 -21 19 -34 0 -13
7 -29 16 -37 11 -9 13 -20 8 -38 -4 -14 -8 -46 -8 -71 -1 -42 -3 -45 -28 -45
-27 -1 -28 6 -13 55 8 24 -9 57 -34 65 -11 3 -22 12 -24 20 -9 23 22 94 41 95
2 0 12 -5 23 -10z m2962 -266 c8 -8 -3 -34 -14 -34 -5 0 -9 9 -9 20 0 19 11
26 23 14z m1334 -201 c-3 -10 -5 -2 -5 17 0 19 2 27 5 18 2 -10 2 -26 0 -35z
m-85 -178 c-3 -90 -5 -95 -25 -95 -18 0 -19 2 -7 10 13 9 13 10 0 10 -13 0
-13 2 -1 9 8 5 11 16 7 26 -3 10 -1 24 5 32 9 11 8 16 -6 27 -12 9 -16 20 -12
35 4 17 2 21 -9 17 -8 -3 -14 -1 -14 4 0 8 21 17 50 19 13 1 14 -14 12 -94z
m-2 -192 c0 -42 -3 -73 -7 -69 -10 9 -11 146 -1 146 4 0 8 -34 8 -77z m-1392
-55 c8 -8 9 -15 1 -25 -15 -18 -36 -16 -43 3 -12 31 18 46 42 22z m-2250 -114
c31 -13 36 -34 9 -34 -8 0 -8 3 1 9 11 7 11 9 -1 14 -8 3 -20 0 -27 -6 -10 -9
-11 -9 -5 1 5 10 -1 12 -30 6 -27 -5 -36 -4 -31 5 5 8 -21 11 -94 11 -56 0
-99 4 -96 8 8 13 237 1 274 -14z m719 -46 c-3 -8 -6 -5 -6 6 -1 11 2 17 5 13
3 -3 4 -12 1 -19z m-927 -33 c0 -8 -9 -15 -19 -15 -23 0 -36 16 -21 25 6 4 7
11 4 17 -4 6 2 6 15 -1 11 -7 21 -18 21 -26z m88 24 c-11 -6 -29 -6 -50 0 -32
9 -31 9 17 10 38 0 46 -2 33 -10z m-199 -8 c16 -10 6 -31 -14 -31 -17 0 -28
17 -20 30 8 12 16 12 34 1z m306 -13 c12 -11 -42 0 -65 14 -10 6 -3 7 20 2 19
-3 40 -10 45 -16z m-77 -5 c5 -17 -26 -29 -40 -15 -6 6 -7 15 -3 22 9 14 37 9
43 -7z m-853 -9 c105 -3 208 -7 230 -8 22 -1 71 -3 109 -4 61 -2 67 -4 61 -19
-4 -10 -16 -44 -27 -75 -15 -42 -26 -58 -43 -62 -27 -7 -75 9 -75 24 0 6 -10
8 -25 4 -17 -4 -27 -1 -31 9 -3 8 -16 18 -29 21 -13 3 -30 9 -39 12 -11 4 -16
0 -16 -14 0 -16 9 -22 40 -27 69 -12 44 -26 -40 -23 -44 1 -80 6 -80 11 0 5
11 18 25 29 14 11 25 24 25 29 0 14 -48 11 -53 -3 -2 -7 -8 -9 -13 -5 -5 4 -2
12 6 17 23 14 4 23 -60 28 -33 2 -60 8 -60 12 0 4 7 7 16 6 9 0 19 5 21 12 3
9 -7 11 -38 9 -44 -4 -164 15 -176 26 -3 4 13 5 38 2 24 -2 130 -7 234 -11z
m1165 -44 c14 -5 34 -11 45 -13 14 -3 11 -5 -9 -6 l-29 -1 22 -24 c19 -21 13
-19 -53 13 -42 20 -76 40 -76 44 0 9 60 1 100 -13z m-453 -23 c6 -4 39 -9 74
-12 34 -3 64 -7 66 -9 8 -8 -36 -84 -52 -90 -19 -7 -30 -2 -63 27 -19 18 -36
21 -117 21 -52 0 -95 4 -95 8 0 5 -9 8 -20 8 -23 0 -26 22 -6 42 10 11 39 14
108 13 52 -1 99 -5 105 -8z m550 7 c-3 -3 -12 -4 -19 -1 -8 3 -5 6 6 6 11 1
17 -2 13 -5z m63 -3 c0 -4 -11 -6 -25 -3 -14 2 -25 6 -25 8 0 2 11 4 25 4 14
0 25 -4 25 -9z m2226 -108 c-8 -34 -11 -73 -9 -86 3 -14 0 -28 -6 -31 -16 -10
-195 5 -179 16 7 4 30 6 50 2 49 -7 78 9 77 44 0 15 -3 21 -6 15 -6 -17 -20
-16 -27 2 -9 25 5 47 26 42 16 -5 17 -3 7 9 -6 8 -26 14 -45 14 -18 0 -36 5
-40 11 -5 8 6 10 35 7 22 -2 41 0 41 4 0 5 61 14 87 13 1 0 -4 -28 -11 -62z
m-396 47 c0 -5 -19 -9 -42 -9 l-43 2 35 7 c19 4 38 8 43 9 4 0 7 -3 7 -9z
m549 -38 c-5 -23 -7 -55 -3 -70 4 -21 3 -24 -5 -12 -9 13 -11 13 -11 -2 0 -22
18 -24 26 -3 4 8 10 15 15 15 5 0 9 -7 9 -15 0 -8 7 -15 16 -15 8 0 13 -4 9
-9 -3 -6 14 -12 37 -14 24 -2 -2 -4 -57 -5 -80 -1 -97 1 -85 11 9 7 22 44 29
82 8 39 16 74 18 78 11 18 11 -1 2 -41z m790 -36 c-1 -46 -6 -90 -10 -98 -5
-8 -9 26 -8 85 1 54 5 97 11 97 5 0 8 -36 7 -84z m301 74 c0 -5 -10 -10 -22
-9 -22 0 -22 1 -3 9 11 5 21 9 23 9 1 1 2 -3 2 -9z m-1567 -7 c-7 -2 -21 -2
-30 0 -10 3 -4 5 12 5 17 0 24 -2 18 -5z m44 1 c-3 -3 -12 -4 -19 -1 -8 3 -5
6 6 6 11 1 17 -2 13 -5z m67 -1 c-5 -5 -12 -12 -15 -16 -3 -5 -9 -2 -12 7 -5
12 0 16 15 16 12 0 17 -3 12 -7z m43 1 c-3 -3 -12 -4 -19 -1 -8 3 -5 6 6 6 11
1 17 -2 13 -5z m-3360 -30 c-9 -9 -28 6 -21 18 4 6 10 6 17 -1 6 -6 8 -13 4
-17z m3250 10 c-3 -3 -12 -4 -19 -1 -8 3 -5 6 6 6 11 1 17 -2 13 -5z m-2637
-30 c0 -17 -22 -14 -28 4 -2 7 3 12 12 12 9 0 16 -7 16 -16z m-1951 -20 c11
-14 17 -32 14 -40 -7 -19 -42 -18 -50 2 -3 8 -12 13 -20 10 -7 -3 -16 1 -19 9
-18 47 41 62 75 19z m1841 16 c0 -5 -7 -10 -15 -10 -8 0 -15 5 -15 10 0 6 7
10 15 10 8 0 15 -4 15 -10z m230 -26 c0 -9 -5 -14 -12 -12 -18 6 -21 28 -4 28
9 0 16 -7 16 -16z m2413 -61 c-24 -2 -62 -2 -85 0 -24 2 -5 4 42 4 47 0 66 -2
43 -4z m95 0 c-10 -2 -26 -2 -35 0 -10 3 -2 5 17 5 19 0 27 -2 18 -5z m-2788
-46 l25 -4 -26 -2 c-15 0 -33 7 -40 17 -12 15 -12 16 1 5 8 -6 26 -13 40 -16z
m4020 -17 c0 -5 -4 -10 -10 -10 -5 0 -10 5 -10 10 0 6 5 10 10 10 6 0 10 -4
10 -10z m-3795 -9 c26 -6 31 -9 15 -9 -14 -1 -43 3 -65 7 -26 6 -31 9 -15 9
14 1 43 -3 65 -7z m-935 -11 c0 -5 -7 -10 -15 -10 -8 0 -15 5 -15 10 0 6 7 10
15 10 8 0 15 -4 15 -10z m4807 -202 c-3 -8 -6 -5 -6 6 -1 11 2 17 5 13 3 -3 4
-12 1 -19z m-2910 -380 c-3 -7 -5 -2 -5 12 0 14 2 19 5 13 2 -7 2 -19 0 -25z
m-1691 -91 c21 -44 22 -48 5 -27 -19 23 -51 77 -51 87 0 15 25 -17 46 -60z
m-1056 -73 c124 -9 230 -20 235 -26 9 -9 -146 -5 -290 7 -28 3 -83 7 -124 10
-41 4 -82 10 -90 15 -23 13 7 13 269 -6z m1100 -12 c0 -15 -2 -15 -10 -2 -13
20 -13 33 0 25 6 -3 10 -14 10 -23z m4318 5 c-15 -12 -48 -40 -74 -62 -26 -22
-68 -72 -93 -111 -26 -39 -51 -69 -58 -67 -27 9 86 145 181 218 62 47 91 62
44 22z m-4255 -24 c4 -3 0 -15 -9 -25 -13 -14 -20 -15 -31 -7 -21 18 -15 39
10 39 13 0 27 -3 30 -7z m1093 -119 c37 -4 42 -8 48 -35 8 -43 3 -47 -51 -42
-72 6 -94 13 -88 23 8 13 -11 31 -54 51 l-34 15 69 -3 c38 -2 88 -6 110 -9z
m161 -14 c12 0 13 -3 4 -14 -18 -21 8 -35 91 -51 l73 -14 -110 5 c-60 4 -112
8 -114 10 -2 2 0 11 4 21 5 10 7 27 6 37 -2 14 2 17 14 12 9 -3 24 -6 32 -6z
m773 -86 c0 -14 164 -36 168 -23 3 6 8 6 15 0 7 -5 89 -12 182 -16 94 -4 184
-9 200 -11 17 -2 77 -8 134 -13 57 -6 106 -13 110 -16 3 -4 -25 -4 -64 -1
-226 18 -362 27 -540 36 l-200 10 -22 27 c-28 35 -29 47 -3 31 11 -7 20 -18
20 -24z m23 29 c-7 -2 -19 -2 -25 0 -7 3 -2 5 12 5 14 0 19 -2 13 -5z m-225
-10 c-10 -2 -28 -2 -40 0 -13 2 -5 4 17 4 22 1 32 -1 23 -4z m535 -2 l28 -6
-29 -18 c-27 -15 -38 -16 -109 -5 -47 8 -67 14 -50 16 15 2 25 8 22 13 -7 10
93 10 138 0z m-610 -17 c110 -4 186 -11 185 -16 -4 -12 6 -12 -156 -2 -156 9
-179 10 -279 12 -40 1 -73 5 -73 10 0 4 30 6 68 5 37 -1 152 -5 255 -9z m394
0 c-3 -3 -12 -4 -19 -1 -8 3 -5 6 6 6 11 1 17 -2 13 -5z m-1999 -64 c21 -29
22 -30 3 -30 -16 0 -51 37 -51 55 0 16 29 1 48 -25z"/>
<path d="M2437 8874 c-6 -11 32 -94 44 -94 11 0 19 28 13 45 -4 8 -12 15 -19
15 -6 0 -16 10 -22 22 -5 12 -12 17 -16 12z"/>
<path d="M2422 6895 c0 -16 2 -22 5 -12 2 9 2 23 0 30 -3 6 -5 -1 -5 -18z"/>
<path d="M2436 6555 c4 -8 10 -12 15 -9 14 8 10 24 -6 24 -9 0 -12 -6 -9 -15z"/>
<path d="M2510 6546 c0 -2 7 -7 16 -10 8 -3 12 -2 9 4 -6 10 -25 14 -25 6z"/>
<path d="M2590 6486 c0 -2 7 -7 16 -10 8 -3 12 -2 9 4 -6 10 -25 14 -25 6z"/>
<path d="M2351 6214 c0 -11 3 -14 6 -6 3 7 2 16 -1 19 -3 4 -6 -2 -5 -13z"/>
<path d="M2330 6140 c0 -5 4 -10 9 -10 6 0 13 5 16 10 3 6 -1 10 -9 10 -9 0
-16 -4 -16 -10z"/>
<path d="M2290 5884 c0 -5 7 -18 15 -28 12 -16 15 -17 15 -4 0 8 -7 21 -15 28
-8 7 -15 9 -15 4z"/>
<path d="M2346 5826 c-4 -16 -9 -168 -11 -337 l-4 -308 30 -38 c16 -21 33 -43
39 -50 5 -7 10 -15 10 -18 0 -3 20 -31 45 -63 25 -31 45 -62 45 -68 0 -6 9
-19 20 -29 11 -10 20 -22 20 -27 0 -18 31 -40 66 -48 29 -7 39 -5 52 11 9 10
24 19 34 19 22 0 23 23 3 40 -18 15 -18 20 1 45 13 17 16 18 24 5 5 -8 10 -30
10 -48 0 -33 19 -62 40 -62 7 0 9 -8 5 -21 -6 -19 -4 -21 16 -16 13 4 27 7 30
7 4 0 10 8 13 17 4 10 -4 30 -24 54 -35 44 -35 45 -14 66 17 17 30 9 36 -22 3
-17 6 -15 21 14 21 42 21 41 1 41 -11 0 -14 5 -9 18 8 20 8 20 6 50 0 12 -7
22 -14 22 -18 0 -44 25 -80 73 -20 27 -35 37 -50 35 -18 -2 -23 3 -27 32 -4
20 -25 61 -48 91 -23 31 -42 61 -42 67 0 6 -6 17 -13 24 -7 7 -23 33 -35 58
-13 25 -39 70 -58 100 -19 30 -42 80 -50 110 -9 30 -26 71 -38 90 -11 19 -26
48 -32 64 l-11 31 -7 -29z"/>
<path d="M2860 5671 c-46 -48 -60 -57 -82 -54 -25 4 -28 1 -28 -26 0 -16 -5
-42 -10 -57 -9 -24 -4 -37 55 -127 36 -55 65 -104 65 -109 0 -6 8 -22 19 -36
31 -45 69 -154 75 -218 5 -58 13 -85 39 -142 9 -19 7 -31 -9 -61 l-20 -36 34
-23 c47 -31 77 -29 96 8 8 18 10 30 4 30 -7 0 -6 5 2 15 15 18 5 35 -21 35
-10 0 -19 5 -19 11 0 6 7 8 16 5 25 -10 34 2 23 32 -7 18 -7 28 0 30 16 5 3
22 -18 22 -22 0 -61 44 -61 68 0 10 -5 23 -10 28 -6 6 -13 23 -16 39 -3 15
-10 37 -16 48 -5 11 -6 22 -2 26 11 7 12 12 18 89 2 34 0 64 -5 67 -5 4 -2 13
6 22 14 14 14 17 -1 34 -18 20 -12 68 9 81 9 5 8 15 0 40 -7 18 -9 46 -6 61 9
47 -41 159 -71 156 -6 0 -36 -27 -66 -58z m148 -660 c3 -8 -1 -12 -9 -9 -7 2
-15 10 -17 17 -3 8 1 12 9 9 7 -2 15 -10 17 -17z"/>
<path d="M2190 5705 c0 -8 5 -15 10 -15 6 0 10 7 10 15 0 8 -4 15 -10 15 -5 0
-10 -7 -10 -15z"/>
<path d="M3387 5504 c-13 -14 -7 -32 14 -37 14 -4 18 -2 11 6 -5 7 -11 18 -13
25 -3 7 -8 10 -12 6z"/>
<path d="M3235 5464 c-11 -12 -13 -20 -5 -29 6 -7 7 -20 4 -30 -6 -15 -4 -16
13 -7 14 8 23 8 31 0 18 -18 15 16 -3 52 -18 35 -19 35 -40 14z"/>
<path d="M3437 5363 c8 -52 13 -54 13 -5 0 23 -4 42 -9 42 -6 0 -7 -17 -4 -37z"/>
<path d="M3222 5355 c0 -16 2 -22 5 -12 2 9 2 23 0 30 -3 6 -5 -1 -5 -18z"/>
<path d="M2866 4861 c-4 -7 -5 -15 -2 -18 9 -9 19 4 14 18 -4 11 -6 11 -12 0z"/>
<path d="M3108 4763 c10 -4 10 -7 -1 -17 -8 -6 -18 -22 -22 -34 -6 -22 -5 -23
16 -17 28 9 48 33 49 58 0 12 -8 17 -27 16 -16 0 -22 -3 -15 -6z"/>
<path d="M2840 4715 c0 -20 5 -25 25 -25 29 0 33 17 8 36 -26 19 -33 17 -33
-11z"/>
<path d="M5405 6851 c-217 -62 -252 -74 -190 -66 22 3 114 12 205 20 219 21
205 16 205 65 0 22 -4 40 -10 39 -5 -1 -100 -27 -210 -58z"/>
<path d="M4080 6580 c0 -5 7 -10 15 -10 8 0 15 5 15 10 0 6 -7 10 -15 10 -8 0
-15 -4 -15 -10z"/>
<path d="M5862 5760 c0 -19 2 -27 5 -17 2 9 2 25 0 35 -3 9 -5 1 -5 -18z"/>
<path d="M5965 5729 c-4 -6 -4 -13 -1 -16 8 -8 36 5 36 17 0 13 -27 13 -35 -1z"/>
<path d="M5953 5623 c9 -2 25 -2 35 0 9 3 1 5 -18 5 -19 0 -27 -2 -17 -5z"/>
<path d="M5970 5528 c0 -12 3 -17 8 -12 4 5 11 12 15 15 5 3 2 9 -7 12 -12 5
-16 0 -16 -15z"/>
<path d="M5955 5430 c-3 -5 3 -10 14 -10 12 0 21 5 21 10 0 6 -6 10 -14 10 -8
0 -18 -4 -21 -10z"/>
<path d="M5967 5344 c-9 -10 2 -24 19 -24 8 0 14 7 14 15 0 15 -21 21 -33 9z"/>
<path d="M5963 5233 c9 -2 23 -2 30 0 6 3 -1 5 -18 5 -16 0 -22 -2 -12 -5z"/>
<path d="M5970 5135 c0 -9 6 -12 15 -9 8 4 15 10 15 15 0 5 -7 9 -15 9 -8 0
-15 -7 -15 -15z"/>
<path d="M5963 5033 c9 -2 23 -2 30 0 6 3 -1 5 -18 5 -16 0 -22 -2 -12 -5z"/>
<path d="M5970 4942 c0 -5 7 -9 15 -9 8 0 15 4 15 9 0 4 -7 8 -15 8 -8 0 -15
-4 -15 -8z"/>
<path d="M5968 4843 c6 -2 18 -2 25 0 6 3 1 5 -13 5 -14 0 -19 -2 -12 -5z"/>
<path d="M621 5284 c0 -11 3 -14 6 -6 3 7 2 16 -1 19 -3 4 -6 -2 -5 -13z"/>
<path d="M655 5190 c3 -5 10 -10 16 -10 5 0 9 5 9 10 0 6 -7 10 -16 10 -8 0
-12 -4 -9 -10z"/>
<path d="M644 5149 c-8 -14 18 -31 30 -19 9 9 0 30 -14 30 -5 0 -12 -5 -16
-11z"/>
<path d="M721 4584 c0 -11 3 -14 6 -6 3 7 2 16 -1 19 -3 4 -6 -2 -5 -13z"/>
<path d="M4463 4303 c-19 -7 -15 -31 6 -38 10 -3 31 -1 47 5 28 11 28 12 10
26 -20 14 -41 17 -63 7z"/>
<path d="M4696 4085 c4 -8 15 -15 25 -15 23 0 25 16 3 24 -25 10 -34 7 -28 -9z"/>
<path d="M6160 4172 c0 -5 7 -9 15 -9 8 0 15 4 15 9 0 4 -7 8 -15 8 -8 0 -15
-4 -15 -8z"/>
<path d="M5335 3470 c4 -6 11 -8 16 -5 14 9 11 15 -7 15 -8 0 -12 -5 -9 -10z"/>
<path d="M5950 3171 c0 -11 26 -22 34 -14 3 3 3 10 0 14 -7 12 -34 11 -34 0z"/>
<path d="M5953 3063 c9 -2 25 -2 35 0 9 3 1 5 -18 5 -19 0 -27 -2 -17 -5z"/>
<path d="M5960 2970 c-13 -8 -12 -10 3 -10 9 0 17 5 17 10 0 12 -1 12 -20 0z"/>
<path d="M5953 2863 c9 -2 23 -2 30 0 6 3 -1 5 -18 5 -16 0 -22 -2 -12 -5z"/>
<path d="M5955 2770 c3 -5 10 -10 16 -10 5 0 9 5 9 10 0 6 -7 10 -16 10 -8 0
-12 -4 -9 -10z"/>
<path d="M5953 2663 c9 -2 23 -2 30 0 6 3 -1 5 -18 5 -16 0 -22 -2 -12 -5z"/>
<path d="M5950 2571 c0 -5 7 -11 15 -15 9 -3 15 0 15 9 0 8 -7 15 -15 15 -8 0
-15 -4 -15 -9z"/>
<path d="M5943 2463 c9 -2 25 -2 35 0 9 3 1 5 -18 5 -19 0 -27 -2 -17 -5z"/>
<path d="M5950 2370 c0 -5 7 -10 15 -10 8 0 15 5 15 10 0 6 -7 10 -15 10 -8 0
-15 -4 -15 -10z"/>
<path d="M5942 2168 c7 -19 38 -22 38 -4 0 10 -9 16 -21 16 -12 0 -19 -5 -17
-12z"/>
<path d="M1600 1428 c0 -4 3 -8 8 -9 4 0 15 -2 24 -4 10 -2 20 0 23 5 3 4 -9
10 -25 12 -17 3 -30 1 -30 -4z"/>
<path d="M2150 1380 c0 -5 7 -10 15 -10 8 0 15 5 15 10 0 6 -7 10 -15 10 -8 0
-15 -4 -15 -10z"/>
<path d="M4902 1310 c0 -14 2 -19 5 -12 2 6 2 18 0 25 -3 6 -5 1 -5 -13z"/>
<path d="M2528 223 c7 -3 16 -2 19 1 4 3 -2 6 -13 5 -11 0 -14 -3 -6 -6z"/>
</g>
</svg>
